<svg xmlns="http://www.w3.org/2000/svg" xmlns:xlink="http://www.w3.org/1999/xlink" width="500" zoomAndPan="magnify" viewBox="0 0 375 374.999991" height="500" preserveAspectRatio="xMidYMid meet" version="1.0"><defs><clipPath id="0d1e3e279f"><path d="M 198 137 L 238 137 L 238 195 L 198 195 Z M 198 137 " clip-rule="nonzero"/></clipPath><clipPath id="3c843725e5"><path d="M 141.949219 173.972656 L 199.753906 116.167969 L 255.4375 171.851562 L 197.632812 229.65625 Z M 141.949219 173.972656 " clip-rule="nonzero"/></clipPath><clipPath id="a4d85d9499"><path d="M 141.949219 173.972656 L 199.753906 116.167969 L 255.4375 171.851562 L 197.632812 229.65625 Z M 141.949219 173.972656 " clip-rule="nonzero"/></clipPath><clipPath id="21e16e0e3c"><path d="M 141 155 L 213 155 L 213 208 L 141 208 Z M 141 155 " clip-rule="nonzero"/></clipPath><clipPath id="6b54b0c92e"><path d="M 141.949219 173.972656 L 199.753906 116.167969 L 255.4375 171.851562 L 197.632812 229.65625 Z M 141.949219 173.972656 " clip-rule="nonzero"/></clipPath><clipPath id="9a59686755"><path d="M 141.949219 173.972656 L 199.753906 116.167969 L 255.4375 171.851562 L 197.632812 229.65625 Z M 141.949219 173.972656 " clip-rule="nonzero"/></clipPath></defs><g clip-path="url(#0d1e3e279f)"><g clip-path="url(#3c843725e5)"><g clip-path="url(#a4d85d9499)"><path fill="#80cc28" d="M 237.210938 170.21875 C 234.46875 150.574219 201.582031 137.484375 201.582031 137.484375 C 201.582031 137.484375 205.386719 155.050781 200.828125 165.582031 C 197.777344 172.621094 193.878906 195.148438 220.730469 194.449219 C 221.019531 194.445312 221.316406 194.429688 221.613281 194.40625 C 224.851562 184.316406 228.066406 161.816406 203.695312 140.03125 C 203.695312 140.03125 234.574219 161.722656 223.207031 194.230469 C 230.425781 193.144531 239.660156 187.765625 237.210938 170.21875 " fill-opacity="1" fill-rule="nonzero"/></g></g></g><g clip-path="url(#21e16e0e3c)"><g clip-path="url(#6b54b0c92e)"><g clip-path="url(#9a59686755)"><path fill="#26973c" d="M 195.636719 175.148438 C 183.839844 169.863281 167.585938 167.296875 146.152344 173.410156 C 146.152344 173.410156 171.832031 162.707031 196.082031 172.769531 C 196.484375 170.996094 196.996094 169.457031 197.488281 168.324219 C 198.898438 165.066406 199.507812 161.140625 199.679688 157.261719 C 176.691406 148.726562 141.984375 173.949219 141.984375 173.949219 C 141.984375 173.949219 163.414062 181.777344 171.625 193.808594 C 176.757812 201.332031 195.949219 218.859375 212.695312 197.058594 C 196.328125 195.597656 194.378906 183.714844 195.636719 175.148438 " fill-opacity="1" fill-rule="nonzero"/></g></g></g></svg>