<svg xmlns="http://www.w3.org/2000/svg" xmlns:xlink="http://www.w3.org/1999/xlink" width="500" zoomAndPan="magnify" viewBox="0 0 375 374.999991" height="500" preserveAspectRatio="xMidYMid meet" version="1.0"><defs><g/><clipPath id="66c11d5ab3"><path d="M 126 126 L 166 126 L 166 184 L 126 184 Z M 126 126 " clip-rule="nonzero"/></clipPath><clipPath id="83f2062c06"><path d="M 69.386719 163.449219 L 127.191406 105.640625 L 182.875 161.328125 L 125.070312 219.132812 Z M 69.386719 163.449219 " clip-rule="nonzero"/></clipPath><clipPath id="cc68878afd"><path d="M 69.386719 163.449219 L 127.191406 105.640625 L 182.875 161.328125 L 125.070312 219.132812 Z M 69.386719 163.449219 " clip-rule="nonzero"/></clipPath><clipPath id="9a452b6e98"><path d="M 69 144 L 141 144 L 141 198 L 69 198 Z M 69 144 " clip-rule="nonzero"/></clipPath><clipPath id="2533e3f261"><path d="M 69.386719 163.449219 L 127.191406 105.640625 L 182.875 161.328125 L 125.070312 219.132812 Z M 69.386719 163.449219 " clip-rule="nonzero"/></clipPath><clipPath id="c5d001390f"><path d="M 69.386719 163.449219 L 127.191406 105.640625 L 182.875 161.328125 L 125.070312 219.132812 Z M 69.386719 163.449219 " clip-rule="nonzero"/></clipPath></defs><g clip-path="url(#66c11d5ab3)"><g clip-path="url(#83f2062c06)"><g clip-path="url(#cc68878afd)"><path fill="#80cc28" d="M 164.648438 159.695312 C 161.90625 140.050781 129.019531 126.960938 129.019531 126.960938 C 129.019531 126.960938 132.824219 144.527344 128.265625 155.058594 C 125.214844 162.09375 121.316406 184.621094 148.167969 183.925781 C 148.453125 183.917969 148.75 183.90625 149.050781 183.882812 C 152.289062 173.792969 155.503906 151.292969 131.132812 129.507812 C 131.132812 129.507812 162.011719 151.199219 150.644531 183.703125 C 157.863281 182.621094 167.097656 177.242188 164.648438 159.695312 " fill-opacity="1" fill-rule="nonzero"/></g></g></g><g clip-path="url(#9a452b6e98)"><g clip-path="url(#2533e3f261)"><g clip-path="url(#c5d001390f)"><path fill="#26973c" d="M 123.074219 164.625 C 111.277344 159.339844 95.023438 156.773438 73.589844 162.886719 C 73.589844 162.886719 99.269531 152.183594 123.519531 162.246094 C 123.921875 160.46875 124.433594 158.933594 124.925781 157.800781 C 126.335938 154.542969 126.945312 150.613281 127.113281 146.738281 C 104.128906 138.203125 69.421875 163.425781 69.421875 163.425781 C 69.421875 163.425781 90.851562 171.25 99.0625 183.285156 C 104.195312 190.808594 123.386719 208.335938 140.132812 186.535156 C 123.765625 185.074219 121.816406 173.191406 123.074219 164.625 " fill-opacity="1" fill-rule="nonzero"/></g></g></g><g fill="#3c4937" fill-opacity="1"><g transform="translate(124.379404, 214.70195)"><g><path d="M 3.203125 -6.125 C 3.597656 -6.125 3.972656 -6.023438 4.328125 -5.828125 C 5.328125 -5.273438 6.285156 -4.835938 7.203125 -4.515625 C 8.117188 -4.191406 8.976562 -4.03125 9.78125 -4.03125 C 10.601562 -4.03125 11.207031 -4.164062 11.59375 -4.4375 C 11.988281 -4.71875 12.1875 -5.082031 12.1875 -5.53125 L 12.1875 -5.609375 C 12.1875 -5.910156 12.070312 -6.171875 11.84375 -6.390625 C 11.625 -6.617188 11.316406 -6.8125 10.921875 -6.96875 C 10.535156 -7.132812 10.09375 -7.289062 9.59375 -7.4375 C 9.09375 -7.59375 8.566406 -7.757812 8.015625 -7.9375 C 7.304688 -8.132812 6.59375 -8.375 5.875 -8.65625 C 5.164062 -8.945312 4.519531 -9.328125 3.9375 -9.796875 C 3.363281 -10.265625 2.894531 -10.835938 2.53125 -11.515625 C 2.175781 -12.191406 2 -13.015625 2 -13.984375 L 2 -14.0625 C 2 -15.09375 2.191406 -16.003906 2.578125 -16.796875 C 2.960938 -17.585938 3.488281 -18.253906 4.15625 -18.796875 C 4.820312 -19.347656 5.601562 -19.757812 6.5 -20.03125 C 7.40625 -20.3125 8.359375 -20.453125 9.359375 -20.453125 C 10.410156 -20.453125 11.460938 -20.304688 12.515625 -20.015625 C 13.578125 -19.734375 14.609375 -19.367188 15.609375 -18.921875 C 16.515625 -18.515625 16.96875 -17.800781 16.96875 -16.78125 C 16.96875 -16.125 16.742188 -15.582031 16.296875 -15.15625 C 15.859375 -14.726562 15.316406 -14.515625 14.671875 -14.515625 C 14.296875 -14.515625 13.941406 -14.601562 13.609375 -14.78125 C 12.804688 -15.226562 12.03125 -15.550781 11.28125 -15.75 C 10.53125 -15.957031 9.851562 -16.0625 9.25 -16.0625 C 8.550781 -16.0625 8.023438 -15.925781 7.671875 -15.65625 C 7.316406 -15.394531 7.140625 -15.066406 7.140625 -14.671875 L 7.140625 -14.59375 C 7.140625 -14.34375 7.253906 -14.101562 7.484375 -13.875 C 7.710938 -13.65625 8.015625 -13.445312 8.390625 -13.25 C 8.765625 -13.0625 9.195312 -12.878906 9.6875 -12.703125 C 10.175781 -12.535156 10.695312 -12.363281 11.25 -12.1875 C 11.945312 -11.957031 12.660156 -11.6875 13.390625 -11.375 C 14.117188 -11.0625 14.769531 -10.675781 15.34375 -10.21875 C 15.914062 -9.769531 16.390625 -9.21875 16.765625 -8.5625 C 17.148438 -7.914062 17.34375 -7.128906 17.34375 -6.203125 L 17.34375 -6.125 C 17.34375 -5 17.144531 -4.03125 16.75 -3.21875 C 16.363281 -2.40625 15.816406 -1.734375 15.109375 -1.203125 C 14.410156 -0.671875 13.597656 -0.273438 12.671875 -0.015625 C 11.742188 0.242188 10.726562 0.375 9.625 0.375 C 8.34375 0.375 7.054688 0.203125 5.765625 -0.140625 C 4.484375 -0.492188 3.238281 -1.085938 2.03125 -1.921875 C 1.726562 -2.117188 1.46875 -2.378906 1.25 -2.703125 C 1.039062 -3.035156 0.9375 -3.425781 0.9375 -3.875 C 0.9375 -4.53125 1.148438 -5.066406 1.578125 -5.484375 C 2.003906 -5.910156 2.546875 -6.125 3.203125 -6.125 Z M 3.203125 -6.125 "/></g></g></g><g fill="#3c4937" fill-opacity="1"><g transform="translate(139.346609, 214.70195)"><g><path d="M 1.359375 -5.859375 C 1.359375 -6.960938 1.554688 -7.914062 1.953125 -8.71875 C 2.359375 -9.519531 2.914062 -10.1875 3.625 -10.71875 C 4.34375 -11.25 5.195312 -11.644531 6.1875 -11.90625 C 7.175781 -12.164062 8.273438 -12.296875 9.484375 -12.296875 C 10.535156 -12.296875 11.4375 -12.21875 12.1875 -12.0625 C 12.9375 -11.914062 13.675781 -11.71875 14.40625 -11.46875 L 14.40625 -11.8125 C 14.40625 -14.269531 12.960938 -15.5 10.078125 -15.5 C 9.273438 -15.5 8.539062 -15.472656 7.875 -15.421875 C 7.207031 -15.367188 6.625 -15.207031 6.125 -14.9375 C 5.925781 -14.832031 5.648438 -14.78125 5.296875 -14.78125 C 4.648438 -14.78125 4.09375 -15.003906 3.625 -15.453125 C 3.164062 -15.910156 2.9375 -16.460938 2.9375 -17.109375 C 2.9375 -17.609375 3.078125 -18.054688 3.359375 -18.453125 C 3.648438 -18.859375 4.019531 -19.148438 4.46875 -19.328125 C 5.375 -19.679688 6.332031 -19.945312 7.34375 -20.125 C 8.363281 -20.300781 9.550781 -20.390625 10.90625 -20.390625 C 13.863281 -20.390625 16.097656 -19.679688 17.609375 -18.265625 C 19.128906 -16.847656 19.890625 -14.660156 19.890625 -11.703125 L 19.890625 -2.515625 C 19.890625 -1.742188 19.617188 -1.09375 19.078125 -0.5625 C 18.546875 -0.0390625 17.890625 0.21875 17.109375 0.21875 C 16.285156 0.21875 15.617188 -0.0195312 15.109375 -0.5 C 14.609375 -0.988281 14.359375 -1.535156 14.359375 -2.140625 L 14.359375 -2.1875 C 13.660156 -1.40625 12.828125 -0.78125 11.859375 -0.3125 C 10.898438 0.144531 9.707031 0.375 8.28125 0.375 C 7.320312 0.375 6.421875 0.242188 5.578125 -0.015625 C 4.742188 -0.273438 4.007812 -0.671875 3.375 -1.203125 C 2.75 -1.734375 2.253906 -2.378906 1.890625 -3.140625 C 1.535156 -3.898438 1.359375 -4.785156 1.359375 -5.796875 Z M 6.875 -6.09375 L 6.875 -6.015625 C 6.875 -5.242188 7.160156 -4.644531 7.734375 -4.21875 C 8.316406 -3.789062 9.070312 -3.578125 10 -3.578125 C 11.351562 -3.578125 12.4375 -3.898438 13.25 -4.546875 C 14.070312 -5.203125 14.484375 -6.054688 14.484375 -7.109375 L 14.484375 -8.125 C 13.984375 -8.351562 13.425781 -8.535156 12.8125 -8.671875 C 12.195312 -8.804688 11.535156 -8.875 10.828125 -8.875 C 9.597656 -8.875 8.628906 -8.632812 7.921875 -8.15625 C 7.222656 -7.6875 6.875 -7 6.875 -6.09375 Z M 6.875 -6.09375 "/></g></g></g><g fill="#3c4937" fill-opacity="1"><g transform="translate(157.69839, 214.70195)"><g><path d="M 3.984375 -20.390625 C 4.765625 -20.390625 5.375 -20.191406 5.8125 -19.796875 C 6.25 -19.410156 6.566406 -18.929688 6.765625 -18.359375 L 11.09375 -6.65625 L 15.5 -18.421875 C 15.695312 -18.929688 16 -19.382812 16.40625 -19.78125 C 16.820312 -20.1875 17.410156 -20.390625 18.171875 -20.390625 C 18.921875 -20.390625 19.5625 -20.128906 20.09375 -19.609375 C 20.632812 -19.097656 20.90625 -18.453125 20.90625 -17.671875 C 20.90625 -17.421875 20.867188 -17.164062 20.796875 -16.90625 C 20.722656 -16.644531 20.660156 -16.453125 20.609375 -16.328125 L 14.4375 -2.0625 C 14.113281 -1.34375 13.6875 -0.75 13.15625 -0.28125 C 12.632812 0.175781 11.984375 0.40625 11.203125 0.40625 L 10.90625 0.40625 C 10.125 0.40625 9.46875 0.179688 8.9375 -0.265625 C 8.414062 -0.710938 7.992188 -1.3125 7.671875 -2.0625 L 1.5 -16.328125 C 1.425781 -16.523438 1.359375 -16.734375 1.296875 -16.953125 C 1.234375 -17.179688 1.203125 -17.4375 1.203125 -17.71875 C 1.203125 -18.394531 1.472656 -19.007812 2.015625 -19.5625 C 2.554688 -20.113281 3.210938 -20.390625 3.984375 -20.390625 Z M 3.984375 -20.390625 "/></g></g></g><g fill="#3c4937" fill-opacity="1"><g transform="translate(175.899742, 214.70195)"><g><path d="M 3.15625 -2.890625 L 3.15625 -23.4375 C 3.15625 -24.238281 3.4375 -24.921875 4 -25.484375 C 4.570312 -26.046875 5.257812 -26.328125 6.0625 -26.328125 L 20.640625 -26.328125 C 21.367188 -26.328125 21.984375 -26.078125 22.484375 -25.578125 C 22.992188 -25.078125 23.25 -24.460938 23.25 -23.734375 C 23.25 -23.003906 22.992188 -22.394531 22.484375 -21.90625 C 21.984375 -21.414062 21.367188 -21.171875 20.640625 -21.171875 L 8.90625 -21.171875 L 8.90625 -15.828125 L 18.953125 -15.828125 C 19.679688 -15.828125 20.296875 -15.578125 20.796875 -15.078125 C 21.296875 -14.578125 21.546875 -13.960938 21.546875 -13.234375 C 21.546875 -12.503906 21.296875 -11.894531 20.796875 -11.40625 C 20.296875 -10.925781 19.679688 -10.6875 18.953125 -10.6875 L 8.90625 -10.6875 L 8.90625 -5.15625 L 20.828125 -5.15625 C 21.554688 -5.15625 22.171875 -4.898438 22.671875 -4.390625 C 23.179688 -3.890625 23.4375 -3.28125 23.4375 -2.5625 C 23.4375 -1.832031 23.179688 -1.222656 22.671875 -0.734375 C 22.171875 -0.242188 21.554688 0 20.828125 0 L 6.0625 0 C 5.257812 0 4.570312 -0.28125 4 -0.84375 C 3.4375 -1.40625 3.15625 -2.085938 3.15625 -2.890625 Z M 3.15625 -2.890625 "/></g></g></g><g fill="#3c4937" fill-opacity="1"><g transform="translate(197.184822, 214.70195)"><g><path d="M 1.359375 -5.859375 C 1.359375 -6.960938 1.554688 -7.914062 1.953125 -8.71875 C 2.359375 -9.519531 2.914062 -10.1875 3.625 -10.71875 C 4.34375 -11.25 5.195312 -11.644531 6.1875 -11.90625 C 7.175781 -12.164062 8.273438 -12.296875 9.484375 -12.296875 C 10.535156 -12.296875 11.4375 -12.21875 12.1875 -12.0625 C 12.9375 -11.914062 13.675781 -11.71875 14.40625 -11.46875 L 14.40625 -11.8125 C 14.40625 -14.269531 12.960938 -15.5 10.078125 -15.5 C 9.273438 -15.5 8.539062 -15.472656 7.875 -15.421875 C 7.207031 -15.367188 6.625 -15.207031 6.125 -14.9375 C 5.925781 -14.832031 5.648438 -14.78125 5.296875 -14.78125 C 4.648438 -14.78125 4.09375 -15.003906 3.625 -15.453125 C 3.164062 -15.910156 2.9375 -16.460938 2.9375 -17.109375 C 2.9375 -17.609375 3.078125 -18.054688 3.359375 -18.453125 C 3.648438 -18.859375 4.019531 -19.148438 4.46875 -19.328125 C 5.375 -19.679688 6.332031 -19.945312 7.34375 -20.125 C 8.363281 -20.300781 9.550781 -20.390625 10.90625 -20.390625 C 13.863281 -20.390625 16.097656 -19.679688 17.609375 -18.265625 C 19.128906 -16.847656 19.890625 -14.660156 19.890625 -11.703125 L 19.890625 -2.515625 C 19.890625 -1.742188 19.617188 -1.09375 19.078125 -0.5625 C 18.546875 -0.0390625 17.890625 0.21875 17.109375 0.21875 C 16.285156 0.21875 15.617188 -0.0195312 15.109375 -0.5 C 14.609375 -0.988281 14.359375 -1.535156 14.359375 -2.140625 L 14.359375 -2.1875 C 13.660156 -1.40625 12.828125 -0.78125 11.859375 -0.3125 C 10.898438 0.144531 9.707031 0.375 8.28125 0.375 C 7.320312 0.375 6.421875 0.242188 5.578125 -0.015625 C 4.742188 -0.273438 4.007812 -0.671875 3.375 -1.203125 C 2.75 -1.734375 2.253906 -2.378906 1.890625 -3.140625 C 1.535156 -3.898438 1.359375 -4.785156 1.359375 -5.796875 Z M 6.875 -6.09375 L 6.875 -6.015625 C 6.875 -5.242188 7.160156 -4.644531 7.734375 -4.21875 C 8.316406 -3.789062 9.070312 -3.578125 10 -3.578125 C 11.351562 -3.578125 12.4375 -3.898438 13.25 -4.546875 C 14.070312 -5.203125 14.484375 -6.054688 14.484375 -7.109375 L 14.484375 -8.125 C 13.984375 -8.351562 13.425781 -8.535156 12.8125 -8.671875 C 12.195312 -8.804688 11.535156 -8.875 10.828125 -8.875 C 9.597656 -8.875 8.628906 -8.632812 7.921875 -8.15625 C 7.222656 -7.6875 6.875 -7 6.875 -6.09375 Z M 6.875 -6.09375 "/></g></g></g><g fill="#3c4937" fill-opacity="1"><g transform="translate(215.536602, 214.70195)"><g><path d="M 2.5625 -2.625 L 2.5625 -17.53125 C 2.5625 -18.332031 2.835938 -19.007812 3.390625 -19.5625 C 3.941406 -20.113281 4.617188 -20.390625 5.421875 -20.390625 C 6.222656 -20.390625 6.898438 -20.113281 7.453125 -19.5625 C 8.003906 -19.007812 8.28125 -18.332031 8.28125 -17.53125 L 8.28125 -16.625 C 8.695312 -17.601562 9.234375 -18.472656 9.890625 -19.234375 C 10.546875 -20.003906 11.296875 -20.390625 12.140625 -20.390625 C 13.023438 -20.390625 13.710938 -20.125 14.203125 -19.59375 C 14.691406 -19.0625 14.9375 -18.394531 14.9375 -17.59375 C 14.9375 -16.84375 14.722656 -16.25 14.296875 -15.8125 C 13.867188 -15.375 13.363281 -15.082031 12.78125 -14.9375 C 11.332031 -14.550781 10.21875 -13.800781 9.4375 -12.6875 C 8.664062 -11.570312 8.28125 -10 8.28125 -7.96875 L 8.28125 -2.625 C 8.28125 -1.820312 8.003906 -1.144531 7.453125 -0.59375 C 6.898438 -0.0507812 6.222656 0.21875 5.421875 0.21875 C 4.617188 0.21875 3.941406 -0.0507812 3.390625 -0.59375 C 2.835938 -1.144531 2.5625 -1.820312 2.5625 -2.625 Z M 2.5625 -2.625 "/></g></g></g><g fill="#3c4937" fill-opacity="1"><g transform="translate(227.344876, 214.70195)"><g><path d="M 2.4375 -20.15625 L 3.5 -20.15625 L 3.5 -22.671875 C 3.5 -23.472656 3.773438 -24.148438 4.328125 -24.703125 C 4.878906 -25.253906 5.554688 -25.53125 6.359375 -25.53125 C 7.160156 -25.53125 7.835938 -25.253906 8.390625 -24.703125 C 8.941406 -24.148438 9.21875 -23.472656 9.21875 -22.671875 L 9.21875 -20.15625 L 11.734375 -20.15625 C 12.410156 -20.15625 12.984375 -19.914062 13.453125 -19.4375 C 13.929688 -18.96875 14.171875 -18.394531 14.171875 -17.71875 C 14.171875 -17.039062 13.929688 -16.460938 13.453125 -15.984375 C 12.984375 -15.503906 12.410156 -15.265625 11.734375 -15.265625 L 9.21875 -15.265625 L 9.21875 -6.65625 C 9.21875 -5.351562 9.832031 -4.703125 11.0625 -4.703125 C 11.15625 -4.703125 11.273438 -4.707031 11.421875 -4.71875 C 11.578125 -4.726562 11.679688 -4.734375 11.734375 -4.734375 C 12.390625 -4.734375 12.945312 -4.5 13.40625 -4.03125 C 13.875 -3.570312 14.109375 -3.019531 14.109375 -2.375 C 14.109375 -1.769531 13.941406 -1.289062 13.609375 -0.9375 C 13.285156 -0.582031 12.878906 -0.3125 12.390625 -0.125 C 11.898438 0.0625 11.382812 0.1875 10.84375 0.25 C 10.3125 0.3125 9.816406 0.34375 9.359375 0.34375 C 8.515625 0.34375 7.726562 0.25 7 0.0625 C 6.269531 -0.125 5.644531 -0.457031 5.125 -0.9375 C 4.613281 -1.414062 4.210938 -2.039062 3.921875 -2.8125 C 3.640625 -3.59375 3.5 -4.5625 3.5 -5.71875 L 3.5 -15.265625 L 2.4375 -15.265625 C 1.757812 -15.265625 1.179688 -15.503906 0.703125 -15.984375 C 0.234375 -16.460938 0 -17.039062 0 -17.71875 C 0 -18.394531 0.234375 -18.96875 0.703125 -19.4375 C 1.179688 -19.914062 1.757812 -20.15625 2.4375 -20.15625 Z M 2.4375 -20.15625 "/></g></g></g><g fill="#3c4937" fill-opacity="1"><g transform="translate(239.040325, 214.70195)"><g><path d="M 5.421875 -27.6875 C 6.222656 -27.6875 6.898438 -27.410156 7.453125 -26.859375 C 8.003906 -26.304688 8.28125 -25.628906 8.28125 -24.828125 L 8.28125 -17.296875 C 8.925781 -18.148438 9.710938 -18.898438 10.640625 -19.546875 C 11.566406 -20.203125 12.742188 -20.53125 14.171875 -20.53125 C 16.378906 -20.53125 18.070312 -19.867188 19.25 -18.546875 C 20.4375 -17.234375 21.03125 -15.398438 21.03125 -13.046875 L 21.03125 -2.625 C 21.03125 -1.820312 20.753906 -1.144531 20.203125 -0.59375 C 19.648438 -0.0507812 18.972656 0.21875 18.171875 0.21875 C 17.367188 0.21875 16.691406 -0.0507812 16.140625 -0.59375 C 15.585938 -1.144531 15.3125 -1.820312 15.3125 -2.625 L 15.3125 -11.25 C 15.3125 -13.976562 14.15625 -15.34375 11.84375 -15.34375 C 10.71875 -15.34375 9.84375 -15 9.21875 -14.3125 C 8.59375 -13.625 8.28125 -12.601562 8.28125 -11.25 L 8.28125 -2.625 C 8.28125 -1.820312 8.003906 -1.144531 7.453125 -0.59375 C 6.898438 -0.0507812 6.222656 0.21875 5.421875 0.21875 C 4.617188 0.21875 3.941406 -0.0507812 3.390625 -0.59375 C 2.835938 -1.144531 2.5625 -1.820312 2.5625 -2.625 L 2.5625 -24.828125 C 2.5625 -25.628906 2.835938 -26.304688 3.390625 -26.859375 C 3.941406 -27.410156 4.617188 -27.6875 5.421875 -27.6875 Z M 5.421875 -27.6875 "/></g></g></g><g fill="#3c4937" fill-opacity="1"><g transform="translate(258.561203, 214.70195)"><g><path d="M 2.109375 -3.046875 C 2.109375 -3.953125 2.414062 -4.710938 3.03125 -5.328125 C 3.644531 -5.941406 4.425781 -6.25 5.375 -6.25 C 6.332031 -6.25 7.117188 -5.941406 7.734375 -5.328125 C 8.347656 -4.710938 8.65625 -3.953125 8.65625 -3.046875 L 8.65625 -2.96875 C 8.65625 -2.070312 8.347656 -1.316406 7.734375 -0.703125 C 7.117188 -0.0859375 6.332031 0.21875 5.375 0.21875 C 4.425781 0.21875 3.644531 -0.0859375 3.03125 -0.703125 C 2.414062 -1.316406 2.109375 -2.070312 2.109375 -2.96875 Z M 2.109375 -3.046875 "/></g></g></g><g fill="#26973c" fill-opacity="1"><g transform="translate(140.051706, 245.909091)"><g><path d="M 1.15625 -8.765625 L 4.96875 -8.765625 C 5.875 -8.765625 6.585938 -8.570312 7.109375 -8.1875 C 7.640625 -7.800781 7.90625 -7.265625 7.90625 -6.578125 C 7.90625 -6.085938 7.765625 -5.664062 7.484375 -5.3125 C 7.210938 -4.96875 6.835938 -4.738281 6.359375 -4.625 C 6.953125 -4.519531 7.414062 -4.269531 7.75 -3.875 C 8.082031 -3.488281 8.25 -3 8.25 -2.40625 C 8.25 -1.65625 7.960938 -1.066406 7.390625 -0.640625 C 6.828125 -0.210938 6.046875 0 5.046875 0 L 1.15625 0 Z M 2.625 -7.453125 L 2.625 -5.140625 L 4.890625 -5.140625 C 5.359375 -5.140625 5.722656 -5.242188 5.984375 -5.453125 C 6.253906 -5.660156 6.390625 -5.945312 6.390625 -6.3125 C 6.390625 -6.675781 6.253906 -6.957031 5.984375 -7.15625 C 5.722656 -7.351562 5.359375 -7.453125 4.890625 -7.453125 Z M 2.625 -3.828125 L 2.625 -1.3125 L 4.890625 -1.3125 C 5.472656 -1.3125 5.925781 -1.421875 6.25 -1.640625 C 6.570312 -1.867188 6.734375 -2.1875 6.734375 -2.59375 C 6.734375 -2.976562 6.566406 -3.28125 6.234375 -3.5 C 5.910156 -3.71875 5.460938 -3.828125 4.890625 -3.828125 Z M 2.625 -3.828125 "/></g></g></g><g fill="#26973c" fill-opacity="1"><g transform="translate(152.456261, 245.909091)"><g><path d="M 7.421875 -7.4375 L 2.625 -7.4375 L 2.625 -5.078125 L 6.921875 -5.078125 L 6.921875 -3.75 L 2.625 -3.75 L 2.625 -1.328125 L 7.5625 -1.328125 L 7.5625 0 L 1.15625 0 L 1.15625 -8.765625 L 7.421875 -8.765625 Z M 7.421875 -7.4375 "/></g></g></g><g fill="#26973c" fill-opacity="1"><g transform="translate(164.234458, 245.909091)"><g><path d="M 7.140625 -7.4375 L 4.359375 -7.4375 L 4.359375 0 L 2.875 0 L 2.875 -7.4375 L 0.109375 -7.4375 L 0.109375 -8.765625 L 7.140625 -8.765625 Z M 7.140625 -7.4375 "/></g></g></g><g fill="#26973c" fill-opacity="1"><g transform="translate(175.048045, 245.909091)"><g><path d="M 7.140625 -7.4375 L 4.359375 -7.4375 L 4.359375 0 L 2.875 0 L 2.875 -7.4375 L 0.109375 -7.4375 L 0.109375 -8.765625 L 7.140625 -8.765625 Z M 7.140625 -7.4375 "/></g></g></g><g fill="#26973c" fill-opacity="1"><g transform="translate(185.86163, 245.909091)"><g><path d="M 7.421875 -7.4375 L 2.625 -7.4375 L 2.625 -5.078125 L 6.921875 -5.078125 L 6.921875 -3.75 L 2.625 -3.75 L 2.625 -1.328125 L 7.5625 -1.328125 L 7.5625 0 L 1.15625 0 L 1.15625 -8.765625 L 7.421875 -8.765625 Z M 7.421875 -7.4375 "/></g></g></g><g fill="#26973c" fill-opacity="1"><g transform="translate(197.639825, 245.909091)"><g><path d="M 6.71875 0 L 5.109375 -2.65625 C 5.023438 -2.644531 4.894531 -2.640625 4.71875 -2.640625 L 2.625 -2.640625 L 2.625 0 L 1.15625 0 L 1.15625 -8.765625 L 4.71875 -8.765625 C 5.832031 -8.765625 6.695312 -8.503906 7.3125 -7.984375 C 7.9375 -7.460938 8.25 -6.726562 8.25 -5.78125 C 8.25 -5.070312 8.09375 -4.472656 7.78125 -3.984375 C 7.46875 -3.503906 7.015625 -3.15625 6.421875 -2.9375 L 8.390625 0 Z M 2.625 -3.96875 L 4.71875 -3.96875 C 6.132812 -3.96875 6.84375 -4.554688 6.84375 -5.734375 C 6.84375 -6.867188 6.132812 -7.4375 4.71875 -7.4375 L 2.625 -7.4375 Z M 2.625 -3.96875 "/></g></g></g><g fill="#26973c" fill-opacity="1"><g transform="translate(210.257342, 245.909091)"><g/></g></g><g fill="#26973c" fill-opacity="1"><g transform="translate(217.049645, 245.909091)"><g><path d="M 2.625 -1.34375 L 6.421875 -1.34375 L 6.421875 0 L 1.15625 0 L 1.15625 -8.765625 L 2.625 -8.765625 Z M 2.625 -1.34375 "/></g></g></g><g fill="#26973c" fill-opacity="1"><g transform="translate(227.299494, 245.909091)"><g><path d="M 2.625 0 L 1.15625 0 L 1.15625 -8.765625 L 2.625 -8.765625 Z M 2.625 0 "/></g></g></g><g fill="#26973c" fill-opacity="1"><g transform="translate(234.643001, 245.909091)"><g><path d="M 7.03125 -7.4375 L 2.625 -7.4375 L 2.625 -4.90625 L 6.609375 -4.90625 L 6.609375 -3.59375 L 2.625 -3.59375 L 2.625 0 L 1.15625 0 L 1.15625 -8.765625 L 7.046875 -8.765625 Z M 7.03125 -7.4375 "/></g></g></g><g fill="#26973c" fill-opacity="1"><g transform="translate(245.406477, 245.909091)"><g><path d="M 7.421875 -7.4375 L 2.625 -7.4375 L 2.625 -5.078125 L 6.921875 -5.078125 L 6.921875 -3.75 L 2.625 -3.75 L 2.625 -1.328125 L 7.5625 -1.328125 L 7.5625 0 L 1.15625 0 L 1.15625 -8.765625 L 7.421875 -8.765625 Z M 7.421875 -7.4375 "/></g></g></g></svg>