<svg xmlns="http://www.w3.org/2000/svg" xmlns:xlink="http://www.w3.org/1999/xlink" width="500" zoomAndPan="magnify" viewBox="0 0 375 374.999991" height="500" preserveAspectRatio="xMidYMid meet" version="1.0"><defs><clipPath id="5c222d8e82"><path d="M 187 71 L 316 71 L 316 259 L 187 259 Z M 187 71 " clip-rule="nonzero"/></clipPath><clipPath id="4f98de0c64"><path d="M 0.738281 191.5625 L 191.65625 0.644531 L 375.152344 184.136719 L 184.230469 375.054688 Z M 0.738281 191.5625 " clip-rule="nonzero"/></clipPath><clipPath id="c160a4025c"><path d="M 0.738281 191.5625 L 191.65625 0.644531 L 375.152344 184.136719 L 184.230469 375.054688 Z M 0.738281 191.5625 " clip-rule="nonzero"/></clipPath><clipPath id="b013ae7094"><path d="M 0 130 L 234 130 L 234 303 L 0 303 Z M 0 130 " clip-rule="nonzero"/></clipPath><clipPath id="b9b2599ab1"><path d="M 0.738281 191.5625 L 191.65625 0.644531 L 375.152344 184.136719 L 184.230469 375.054688 Z M 0.738281 191.5625 " clip-rule="nonzero"/></clipPath><clipPath id="f5072e3af6"><path d="M 0.738281 191.5625 L 191.65625 0.644531 L 375.152344 184.136719 L 184.230469 375.054688 Z M 0.738281 191.5625 " clip-rule="nonzero"/></clipPath></defs><g clip-path="url(#5c222d8e82)"><g clip-path="url(#4f98de0c64)"><g clip-path="url(#c160a4025c)"><path fill="#80cc28" d="M 314.214844 179.207031 C 305.191406 114.566406 196.976562 71.484375 196.976562 71.484375 C 196.976562 71.484375 209.5 129.289062 194.488281 163.949219 C 184.453125 187.105469 171.621094 261.234375 259.988281 258.941406 C 260.929688 258.917969 261.90625 258.871094 262.890625 258.792969 C 273.550781 225.59375 284.125 151.554688 203.929688 79.871094 C 203.929688 79.871094 305.539062 151.246094 268.136719 258.210938 C 291.890625 254.652344 322.277344 236.941406 314.214844 179.207031 " fill-opacity="1" fill-rule="nonzero"/></g></g></g><g clip-path="url(#b013ae7094)"><g clip-path="url(#b9b2599ab1)"><g clip-path="url(#f5072e3af6)"><path fill="#26973c" d="M 177.410156 195.429688 C 138.597656 178.039062 85.105469 169.585938 14.574219 189.707031 C 14.574219 189.707031 99.082031 154.488281 178.871094 187.601562 C 180.199219 181.757812 181.882812 176.703125 183.503906 172.972656 C 188.144531 162.25 190.148438 149.324219 190.707031 136.570312 C 115.070312 108.484375 0.867188 191.480469 0.867188 191.480469 C 0.867188 191.480469 71.382812 217.234375 98.398438 256.832031 C 115.285156 281.589844 178.433594 339.261719 233.546875 267.523438 C 179.683594 262.71875 173.273438 223.617188 177.410156 195.429688 " fill-opacity="1" fill-rule="nonzero"/></g></g></g></svg>